<?xml version="1.0" encoding="UTF-8"?>
<svg xmlns="http://www.w3.org/2000/svg" version="1.1"
     width="184.000mm" height="284.000mm" viewBox="-2.000 13.000 184.000 284.000">
  <g fill="none" stroke="#111827" stroke-width="0.25" stroke-linecap="round" stroke-linejoin="round" transform="scale(1,-1) translate(0,-310.0000)">
    <path d="M 175.6324 243.0467 L 176.0104 242.9716 L 176.2892 242.7295 L 176.3482 242.2892 L 176.2824 240.9340 L 176.5260 240.0988 L 176.7202 239.7603 L 177.0221 239.6058" />
    <path d="M 178.6103 243.0467 L 179.0198 243.0307 L 179.2622 242.7275 L 179.2250 241.8347 L 179.3712 240.4959 L 179.5149 240.1043 L 179.7242 239.7896 L 180.0000 239.6058" />
    <path d="M 176.3603 239.8705 L 175.6985 239.6058" />
    <path d="M 179.3382 239.8705 L 178.6765 239.6058" />
    <path d="M 57.6322 225.7703 L 57.7681 226.1734 L 57.9865 226.4838 L 58.3570 226.6266 L 58.7351 226.4577 L 58.8858 226.0609 L 58.8017 225.6575 L 58.5227 225.3863 L 58.1549 225.3558 L 57.8518 225.5314 L 57.6402 225.7385 L 58.3015 225.1143 L 58.3244 217.0143 L 58.2762 205.7643 L 58.1922 198.1145 L 58.2061 194.0614 L 58.2773 193.6112 L 58.4365 193.2189 L 58.7884 193.0484 L 59.6587 192.9701 L 60.0000 192.7965 L 60.1760 192.4489 L 60.2164 192.0142 L 60.2897 186.6145 L 60.2562 179.4142 L 60.2361 178.9646 L 60.1057 178.5701 L 59.7648 178.3672 L 59.3271 178.3224 L 57.0816 178.2907 L 56.6766 178.3992 L 56.4149 178.6679 L 56.3251 179.0721 L 56.3162 192.1175 L 56.3521 192.5511 L 56.5494 192.8836 L 56.9312 193.0142 L 58.2353 193.0213" />
    <path d="M 62.9338 224.1218 L 62.9948 223.6825 L 63.3689 222.9574 L 63.1663 222.6279 L 62.8490 222.6142 L 62.7448 222.9531 L 62.9008 223.3111 L 62.9338 223.5924" />
    <path d="M 29.5809 210.4905 L 29.8540 210.1590 L 29.8934 209.7396 L 30.0645 209.3139 L 30.0839 208.8762 L 30.2057 208.5122 L 30.3750 208.3730 L 29.9779 210.3581 L 30.4152 210.4526 L 30.8361 210.3222 L 30.9287 209.8891 L 30.8221 209.4681 L 30.8838 209.0989 L 31.1544 208.7725 L 31.4953 208.4631 L 31.9373 208.3438 L 32.3580 208.4874 L 32.6008 208.7799 L 32.6369 209.1038 L 32.4828 209.3815 L 32.3603 209.4979 L 31.8971 210.2258 L 32.2641 210.3977 L 32.5196 210.3139 L 32.6250 209.4979 L 30.0441 209.4317 L 30.5074 209.4317" />
    <path d="M 23.9559 203.8072 L 24.0683 205.4379 L 24.4706 205.8034 L 38.3281 205.8099 L 38.6517 205.7016 L 38.7796 205.4235 L 38.7874 202.2146 L 38.6020 201.8735 L 37.9594 201.7477 L 24.6242 201.7751 L 24.0906 202.1168 L 24.0627 203.6422 L 23.5346 203.8379 L 5.3160 203.8767 L 4.7494 203.7874 L 4.5252 203.5435 L 4.5121 139.8305 L 4.7201 139.5579 L 5.2330 139.4465 L 12.9885 139.4333 L 13.5190 139.6609 L 13.5346 141.1570 L 13.9208 141.4915 L 27.6038 141.4987 L 28.1598 141.2605 L 28.1672 139.7720 L 28.5783 139.4625 L 40.8225 139.3546 L 41.6416 139.5639 L 41.7100 141.2056 L 42.1761 141.5066 L 53.3660 141.4911 L 53.6956 141.4057 L 53.8101 141.1682 L 53.8254 138.0222 L 53.7297 137.6094 L 53.4092 137.4437 L 42.1603 137.3936 L 41.8129 137.5285 L 41.6726 137.8020 L 41.6912 139.3564" />
    <path d="M 38.8456 203.8072 L 41.0956 203.7299 L 45.1456 203.8991 L 49.6456 203.7069 L 53.6956 203.9150 L 56.8456 203.7651 L 58.2353 203.8072" />
    <path d="M 63.6618 187.2644 L 64.5471 187.1575 L 64.8577 186.9348 L 64.8678 186.1603 L 65.0312 185.7805 L 65.2892 185.5034 L 65.6531 185.3604 L 66.5272 185.2793 L 66.9211 185.3223 L 67.1691 185.4777 L 65.9779 186.8673 L 66.3726 187.0617 L 66.7132 186.9137 L 66.8409 186.1508 L 66.3041 185.4828 L 66.2426 185.2792" />
    <path d="M 64.0588 187.0659 L 64.1072 186.6158 L 64.0669 185.7213 L 64.4559 185.1469 L 64.1250 186.1395 L 64.7206 186.1395" />
    <path d="M 58.3015 178.2651 L 58.2760 162.0650 L 58.3698 140.4655 L 58.3864 140.0313 L 58.5133 139.6946 L 58.8649 139.5344 L 59.7453 139.4514 L 78.1927 139.4662 L 78.6186 139.5473 L 78.9272 139.7715 L 79.0090 140.1741 L 79.0857 141.0378 L 79.3387 141.3241 L 79.7257 141.4599 L 92.7620 141.4353 L 93.1956 141.4128 L 93.5308 141.2655 L 93.6618 140.9123 L 93.6902 138.2260 L 93.6263 137.8125 L 93.3754 137.5343 L 92.9708 137.4418 L 88.0238 137.3918 L 79.9229 137.4146 L 79.4873 137.4634 L 79.1561 137.6894 L 79.0221 138.0847 L 79.0147 139.4225" />
    <path d="M 160.6831 167.2099 L 160.6771 167.6336 L 160.8269 167.9957 L 161.1991 168.1669 L 161.6126 168.0797 L 161.8218 167.7230 L 161.8082 167.3664 L 161.6676 167.0116 L 161.2713 166.8507 L 160.9140 167.0222 L 160.7001 167.1824" />
    <path d="M 4.6324 167.4792 L 5.0956 167.5453" />
    <path d="M 135.4632 167.5453 L 137.7132 167.5645 L 142.2132 167.4727 L 147.6132 167.6277 L 153.4632 167.4670 L 157.9632 167.5765 L 160.4779 167.5453" />
    <path d="M 135.5294 167.4792 L 135.5843 159.3793 L 135.4964 147.6790 L 135.5132 140.9304 L 135.4367 140.0619 L 135.2858 139.7354 L 134.9541 139.6347 L 134.5192 139.6214 L 125.0701 139.4990 L 93.7721 139.4225" />
    <path d="M 166.3136 166.9389 L 166.6249 167.1915 L 166.9296 167.0366 L 166.5714 166.4018 L 166.3259 166.6319 L 166.3001 166.9039" />
    <path d="M 45.9265 147.2969 L 46.2688 147.0106 L 46.3467 146.1291 L 46.2337 145.6996 L 45.9265 145.2456 L 46.3235 147.2308 L 46.7585 147.1890 L 47.0969 147.0670 L 47.2387 146.7342 L 47.2009 145.8728 L 47.4956 145.5522 L 47.9779 145.2456 L 48.3750 147.2308 L 48.4981 146.3350 L 48.4151 145.8842 L 48.4643 145.4378 L 48.8603 145.3384 L 49.1313 145.6547 L 49.2536 146.0161 L 49.1841 146.3196 L 48.8936 146.4884 L 48.5074 146.5029 L 46.3897 146.3044 L 46.9191 146.2382" />
    <path d="M 53.9338 139.4887 L 55.2838 139.5826 L 55.7338 139.4964 L 57.0838 139.3908 L 57.5338 139.4701 L 58.2353 139.4887" />
    <path d="M 13.5662 139.4225 L 13.5412 138.0706 L 13.6485 137.6506 L 13.9978 137.3928 L 14.4541 137.3287 L 14.9098 137.3322 L 17.6103 137.4481 L 21.6603 137.4856 L 25.7104 137.3281 L 27.5095 137.4321 L 27.9033 137.5624 L 28.1262 137.8650 L 28.1744 138.2822 L 28.1912 139.4225" />
    <path d="M 19.5221 130.4894 L 19.4836 131.3899 L 19.5444 131.8238 L 19.7633 132.1461 L 20.0980 132.1953 L 20.3260 131.9793 L 20.3339 131.1741 L 20.5362 130.8219 L 20.8032 130.5447 L 21.1494 130.4931 L 21.4050 130.7334 L 21.5439 131.1324 L 21.7206 131.4446 L 21.9220 131.4533 L 21.9438 131.2270 L 21.7059 130.9526" />
    <path d="M 85.0368 130.4233 L 85.0097 131.7757 L 85.1958 132.1326 L 85.5136 132.1752 L 85.7703 131.9884 L 85.8840 131.6553 L 85.8851 131.2406 L 85.9880 130.8600 L 86.5588 130.2909 L 88.0809 130.6879 L 87.6905 130.4911 L 87.3261 130.5542 L 87.1676 130.8701 L 87.4126 131.5359 L 87.7240 131.5343 L 87.8824 131.4158" />
    <path d="M 19.5882 131.2835 L 20.1838 131.2835" />
    <path d="M 85.1029 131.2835 L 85.6324 131.2173" />
    <path d="M 22.3015 131.1511 L 22.0500 130.4323 L 21.5074 130.4894" />
    <path d="M 74.5809 122.3504 L 73.7309 122.0543 L 73.3341 121.8570 L 73.0118 121.5904 L 72.8324 121.2754 L 72.8754 121.0276 L 73.1139 120.9889 L 73.5106 121.0212 L 73.8847 120.8706 L 74.1653 120.5980 L 74.2805 120.2236 L 74.2652 119.8192 L 74.0915 119.4536 L 73.7976 119.2261 L 73.4342 119.2257 L 73.0975 119.4421 L 72.8709 119.8075 L 72.7812 120.2446 L 72.7941 120.7622" />
    <path d="M 29.7794 122.2842 L 30.1416 122.0813 L 30.3147 121.7474 L 30.5316 120.8892 L 30.5088 119.9819 L 30.0600 119.2966 L 29.7794 119.0418" />
    <path d="M 61.6765 122.2842 L 62.0885 122.1371 L 62.3383 121.7882 L 62.3611 121.3354 L 62.3315 120.4356 L 62.2200 119.5738 L 62.0342 119.2108 L 61.6765 119.0418 L 63.6618 119.0418 L 64.0620 119.2055 L 64.3248 119.5498 L 64.2271 120.0132 L 64.2535 120.4596 L 64.3478 120.9083 L 64.3888 121.7841 L 64.5667 122.1618 L 64.9191 122.2842" />
    <path d="M 30.4412 122.0857 L 30.8782 122.1641 L 31.3288 122.1174 L 31.6534 121.7999 L 31.7232 121.4087 L 31.6442 121.0530 L 31.4334 120.7096 L 31.0305 120.5796 L 30.5074 120.5637" />
    <path d="M 62.3382 122.0857 L 63.2225 122.2657 L 63.6549 122.1340 L 64.0640 122.1225 L 64.3235 122.0195" />
    <path d="M 49.2353 122.0195 L 49.6579 121.9412 L 49.7567 121.5318 L 49.7462 121.0951 L 49.9033 120.2011 L 49.8407 119.7524 L 49.6660 119.3573 L 49.3015 119.0418" />
    <path d="M 53.0074 122.0195 L 53.4065 121.9141 L 53.5176 121.5286 L 53.5167 121.0950 L 53.6413 120.6528 L 53.6782 120.2009 L 53.6525 119.7426 L 53.0735 119.0418 L 55.3897 119.1741 L 55.8437 119.1486 L 56.2541 119.3035 L 56.5293 119.6237 L 56.6248 120.0095 L 56.5364 120.3975 L 56.0081 121.0304 L 55.7947 121.3575 L 55.7634 121.6161 L 55.9723 121.8967 L 56.3310 122.0519 L 56.5809 122.0857" />
    <path d="M 32.6250 121.2254 L 33.4853 121.2254 L 33.0221 121.0269 L 32.9871 120.1178 L 33.1467 119.8197 L 33.6879 120.2561 L 34.0850 120.4860 L 34.7235 121.0416 L 34.8750 121.2254" />
    <path d="M 36.9926 119.7035 L 36.7088 119.3500 L 36.2997 119.2495 L 35.9722 119.3756 L 35.6895 119.6127 L 35.4648 119.9987 L 35.4942 120.4545 L 35.7019 120.8318 L 35.9946 121.0581 L 36.3596 121.0481 L 36.7941 120.8284" />
    <path d="M 39.9706 121.2254 L 40.8309 121.2254 L 41.2941 121.2254 L 42.2206 121.2254 L 44.4341 120.2325 L 44.3669 119.7912 L 44.1942 119.3944 L 43.8534 119.1490 L 43.4584 119.1729 L 43.1791 119.4269 L 43.0054 119.7893 L 42.9290 120.2057 L 43.0150 120.6118 L 43.2472 120.9398 L 43.6060 121.1009 L 44.0236 121.0518 L 44.2738 120.6945 L 44.4307 120.2679 L 45.1324 121.2254 L 46.0588 121.2254" />
    <path d="M 68.0294 120.4976 L 68.2915 120.8356 L 68.6002 121.0488 L 68.9561 121.0274 L 69.1297 120.8057 L 68.9883 120.5604 L 68.2558 120.2502 L 68.1343 119.9286 L 68.2496 119.5689 L 68.5588 119.3353 L 68.9839 119.2708 L 69.3636 119.4713 L 69.6176 119.7697 L 71.8312 120.2325 L 71.7161 119.8067 L 71.4968 119.4687 L 71.2354 119.1886 L 70.8279 119.0861 L 70.4639 119.3406 L 70.3404 119.7726 L 70.3553 120.2043 L 70.4445 120.5974 L 70.6465 120.9368 L 71.0033 121.0973 L 71.4083 121.0326 L 71.6587 120.6872 L 71.8277 120.2679" />
    <path d="M 77.8235 120.7622 L 78.1560 121.0460 L 78.5255 121.0723 L 78.7922 120.8377 L 78.9103 120.4394 L 78.9681 119.9975 L 78.9789 119.5568 L 78.7227 119.2666 L 78.3066 119.2597 L 77.9976 119.3684 L 77.9173 119.5925 L 78.1437 119.8905 L 78.8824 120.3652 L 79.8088 120.8284 L 80.1532 121.0144 L 80.4778 121.0407 L 80.8057 120.8055 L 80.6853 120.4535 L 80.3382 120.1667" />
    <path d="M 83.5444 120.2325 L 83.2803 119.4134 L 82.9856 119.0910 L 82.5343 119.0645 L 82.2085 119.3647 L 82.0661 119.7760 L 82.0340 120.2059 L 82.1522 120.5998 L 82.3978 120.8869 L 82.7223 121.0166 L 83.1060 121.0088 L 83.3985 120.7031 L 83.5410 120.2679 L 84.2426 121.2254 L 85.1259 121.0607 L 85.4902 120.9197 L 85.6376 120.5877 L 85.8232 119.7358 L 85.6887 119.3376 L 85.3262 119.1108 L 84.2426 119.0418" />
    <path d="M 86.8235 120.7622 L 87.1478 121.0629 L 87.5440 121.1384 L 87.8515 120.8741 L 88.0137 120.4558 L 87.9991 119.9964 L 87.8950 119.5888 L 87.6861 119.3281 L 87.3065 119.2494 L 86.9982 119.3691 L 86.9535 119.5800 L 87.1647 119.8652 L 87.8824 120.3652 L 88.7426 121.2254 L 89.6029 121.2254 L 90.0662 121.2254 L 90.9926 121.2254 L 91.3897 121.2254 L 92.2500 121.2254 L 92.7132 121.2254 L 93.6397 121.2254 L 94.3015 120.7622 L 94.6419 121.0295 L 94.9969 121.0488 L 95.2555 120.8287 L 95.4380 120.4473 L 95.4995 119.9956 L 95.4228 119.5698 L 95.1743 119.3109 L 94.7844 119.2405 L 94.4493 119.3392 L 94.3990 119.5912 L 94.9896 120.1394 L 95.3603 120.3652 L 97.6103 121.0269 L 97.4404 120.1581 L 97.0247 120.1648 L 96.7934 120.4872 L 96.8068 120.7925 L 97.0616 121.0472 L 97.4794 121.1858 L 98.0735 121.2254" />
    <path d="M 102.5735 120.7622 L 102.8887 121.0816 L 103.3010 121.1632 L 103.5608 120.8491 L 103.6779 119.9990 L 103.6418 119.5900 L 103.4471 119.3097 L 103.0557 119.1621 L 102.6583 119.2692 L 102.6163 119.6101 L 103.6324 120.3652" />
    <path d="M 106.2132 119.7035 L 105.9193 119.3646 L 105.5302 119.1723 L 105.1255 119.2585 L 104.8159 119.5602 L 104.7493 120.0075 L 104.8201 120.4344 L 104.9443 120.8169 L 105.2283 121.0226 L 105.5793 121.0444 L 105.9064 120.9240 L 106.0147 120.8284 L 106.6103 121.2254 L 107.4706 121.2254 L 107.8676 121.2254 L 108.3771 120.5002 L 108.3326 120.0474 L 108.2256 119.6371 L 108.0613 119.2741 L 107.8015 119.0418 L 109.3897 120.4976 L 109.6325 120.8543 L 109.9493 121.0876 L 110.3553 121.1093 L 110.6061 120.8091 L 110.3787 120.5134 L 109.9334 120.4786 L 109.5146 120.3442 L 109.4251 119.9274 L 109.6011 119.5623 L 109.9281 119.3642 L 110.3225 119.3758 L 110.6786 119.5374 L 110.9779 119.7697" />
    <path d="M 113.5588 121.2254 L 114.4191 121.2254 L 114.8824 121.2254 L 115.8088 121.2254 L 116.4706 120.7622 L 116.8200 121.0109 L 117.1964 121.1574 L 117.5582 120.9108 L 117.6171 120.4489 L 117.4872 119.6098 L 117.3452 119.3080 L 116.9527 119.1522 L 116.5610 119.2755 L 116.5132 119.6102 L 117.5294 120.3652 L 119.7794 121.0269 L 119.7529 120.5692 L 119.5492 120.2369 L 119.2153 120.2227 L 118.9769 120.4940 L 118.9479 120.8073 L 119.2088 121.0961 L 120.2426 121.2254" />
    <path d="M 123.6838 119.7035 L 123.3939 119.3588 L 122.9899 119.2569 L 122.6502 119.3527 L 122.3739 119.6089 L 122.2012 120.0050 L 122.2031 120.4511 L 122.3562 120.8569 L 122.6697 121.1021 L 123.0519 121.0525 L 123.4853 120.8284 L 124.0809 121.2254 L 124.5166 121.0673 L 124.9244 120.3369 L 124.9071 119.9066 L 124.5425 119.5774 L 124.4118 119.1080" />
    <path d="M 126.8603 120.4976 L 127.0712 120.8852 L 127.4279 121.0600 L 127.7794 121.0113 L 127.9639 120.8058 L 127.8170 120.5638 L 127.0814 120.2551 L 126.9771 119.9289 L 127.0398 119.5382 L 127.3721 119.2791 L 127.8033 119.3266 L 128.1580 119.5246 L 128.4485 119.7697 L 128.8456 121.2254 L 129.1405 120.8885 L 129.4744 120.6052 L 129.9736 119.8978 L 130.1373 119.7676 L 130.3902 119.9466 L 130.6983 120.2804 L 130.9164 120.6680 L 131.2177 120.9798 L 131.5588 121.2254 L 132.2206 120.7622 L 132.5715 121.0079 L 132.9260 121.0846 L 133.2411 120.8696 L 133.3865 120.4519 L 133.3700 119.9974 L 133.2818 119.5928 L 133.0721 119.3467 L 132.7035 119.2425 L 132.3396 119.3072 L 132.2468 119.6158 L 132.5246 119.9101 L 133.2794 120.3652" />
    <path d="M 39.3088 121.1593 L 39.0037 120.3122 L 38.8965 119.8709 L 38.7044 119.4628 L 38.4326 119.0892 L 38.2326 118.7165 L 37.9634 118.4193 L 37.6544 118.1816" />
    <path d="M 111.2426 120.7622 L 111.6087 120.9989 L 112.0165 121.1060 L 112.4491 121.1476 L 112.8978 121.1018 L 113.2279 120.7622" />
    <path d="M 125.0735 120.2990 L 125.8676 121.1593" />
    <path d="M 65.6471 119.3065 L 65.6799 120.2130 L 65.8235 120.6336 L 66.1289 120.9071 L 66.5029 120.9769 L 66.8300 120.8049 L 67.0109 120.4501 L 67.0374 120.0458 L 66.9764 119.6363 L 66.7882 119.2700 L 66.4228 119.0642 L 66.0216 119.0682 L 65.7707 118.9811 L 65.7014 118.6315 L 65.8316 118.2509 L 66.1103 117.9831" />
    <path d="M 75.3750 119.3065 L 75.4039 119.7561 L 75.6052 120.6047 L 75.8715 120.8814 L 76.2263 120.9385 L 76.5250 120.7705 L 76.7420 120.4511 L 76.8525 120.0408 L 76.7941 119.5970 L 76.5310 119.2516 L 76.1430 119.1030 L 75.7430 119.1007 L 75.4953 118.9831 L 75.4341 118.6322 L 75.5466 118.2427 L 75.8382 117.9831" />
    <path d="M 100.1250 119.3065 L 100.3097 120.6291 L 100.5805 120.9532 L 100.9921 121.0715 L 101.3862 120.8868 L 101.5878 120.4821 L 101.5667 120.0429 L 101.4126 119.6546 L 101.1805 119.3759 L 100.8685 119.2260 L 100.4772 119.1792 L 100.2122 119.0029 L 100.2136 118.6364 L 100.3401 118.2700 L 100.5882 117.9831" />
    <path d="M 37.8529 121.0269 L 38.5147 119.5050 L 40.3676 121.0269 L 40.2960 120.5770 L 40.4409 120.1308 L 40.3483 119.6755 L 40.8309 119.0418 L 41.7574 121.0269 L 41.7378 120.5770 L 41.6534 120.1222 L 42.0177 119.3549 L 42.2206 119.0418" />
    <path d="M 45.5294 121.0269 L 45.5997 120.5772 L 45.4494 120.1238 L 45.5681 119.6855 L 45.7795 119.3393 L 46.0588 119.0418 L 47.1838 119.0418 L 46.7976 119.2733 L 46.6168 119.6752 L 46.2932 120.0064 L 46.3831 120.4346 L 46.6140 120.7464 L 46.9191 121.0269" />
    <path d="M 65.1176 121.0269 L 65.6471 120.8946" />
    <path d="M 74.8456 121.0269 L 75.3750 120.8946" />
    <path d="M 84.6397 121.0269 L 84.6397 119.2403" />
    <path d="M 89.1397 121.0269 L 89.1883 120.5769 L 89.1104 120.1255 L 89.0984 119.6691 L 89.4395 119.3758 L 89.6029 119.0418 L 90.5294 121.0269 L 90.4710 120.5772 L 90.5966 119.7025 L 90.7057 119.3003 L 90.9926 119.0418 L 91.7868 121.0269 L 91.7034 120.5771 L 91.7782 120.1266 L 91.9930 119.3158 L 92.2500 119.0418 L 93.1765 121.0269 L 93.2235 120.5767 L 93.1056 120.1238 L 93.2135 119.6937 L 93.6397 119.0418" />
    <path d="M 99.5956 121.0269 L 100.1250 120.8946" />
    <path d="M 107.0074 121.0269 L 107.2555 120.2225 L 108.2647 120.1005" />
    <path d="M 112.2353 121.0269 L 112.3213 120.1300 L 112.2292 119.6741 L 112.3626 119.2518 L 112.7647 119.0418 L 113.9559 121.0269 L 113.8820 120.5771 L 114.0114 120.1299 L 114.0264 119.7018 L 114.1282 119.2940 L 114.4191 119.0418 L 115.3456 121.0269 L 115.2743 120.5773 L 115.4386 120.1316 L 115.3803 119.6931 L 115.4919 119.2808 L 115.8088 119.0418" />
    <path d="M 129.3088 120.7622 L 129.1394 119.6655 L 129.5074 119.0418 L 131.0956 120.6961 L 131.1122 119.4719 L 131.5588 119.0418" />
    <path d="M 34.4118 120.6299 L 34.4268 119.4751 L 34.8750 119.0418" />
    <path d="M 40.4338 120.1667 L 41.6912 120.1667" />
    <path d="M 45.5956 120.1667 L 46.1250 120.1667" />
    <path d="M 59.0294 120.1667 L 59.8235 120.1667" />
    <path d="M 84.7059 120.1667 L 85.6324 120.1667" />
    <path d="M 89.2059 120.1667 L 90.4632 120.1667 L 91.8529 120.1667 L 93.1103 120.1667" />
    <path d="M 114.0221 120.1667 L 115.2794 120.1667" />
    <path d="M 80.8015 120.1005 L 80.8928 119.6721 L 80.7705 119.3272 L 80.4663 119.1960 L 80.0477 119.1243 L 79.0147 119.2403" />
    <path d="M 125.1397 120.1005 L 125.7442 119.2953 L 126.2647 119.0418" />
    <path d="M 97.0147 120.0344 L 96.2928 119.2052 L 95.4926 119.2403 L 97.6103 120.0344 L 97.6705 119.3293 L 98.0735 119.0418" />
    <path d="M 119.1838 120.0344 L 118.4619 119.2052 L 117.6618 119.2403 L 119.7794 120.0344 L 119.8396 119.3293 L 120.2426 119.0418" />
    <path d="M 33.0882 119.6373 L 32.9579 119.2400 L 32.6250 119.0418" />
    <path d="M 88.4779 119.3065 L 88.0147 119.2403" />
    <path d="M 104.2279 119.3065 L 103.7647 119.2403" />
    <path d="M 133.8750 119.3065 L 133.4118 119.2403" />
    <path d="M 30.4412 119.2403 L 31.0368 119.0418" />
    <path d="M 34.4118 119.2403 L 33.9485 119.0418" />
    <path d="M 41.7574 119.2403 L 41.2941 119.0418" />
    <path d="M 49.8309 119.2403 L 50.2941 119.0418" />
    <path d="M 53.6029 119.2403 L 54.0662 119.0418" />
    <path d="M 62.3382 119.2403 L 62.9338 119.0418" />
    <path d="M 90.5294 119.2403 L 90.0662 119.0418" />
    <path d="M 93.1765 119.2403 L 92.7132 119.0418" />
    <path d="M 112.2353 119.2403 L 111.7721 119.0418" />
    <path d="M 115.3456 119.2403 L 114.8824 119.0418" />
    <path d="M 64.3897 119.1741 L 64.9191 119.0418 L 65.6471 118.1816 L 65.1838 117.9831" />
    <path d="M 75.3750 118.1816 L 74.9118 117.9831" />
    <path d="M 100.1250 118.1816 L 99.6618 117.9831" />
    <path d="M 2.3162 114.6083 L 3.0391 113.4769 L 3.1956 113.0517 L 3.2072 112.5957 L 3.1110 111.7260 L 2.9757 111.3119 L 2.7705 110.9283 L 2.4940 110.6224 L 2.2500 110.4395" />
    <path d="M 5.0294 114.5422 L 5.3577 114.2594 L 5.5668 113.9467 L 5.7461 113.5561 L 5.7938 113.1035 L 5.6488 112.6555 L 5.6307 112.2169 L 5.5350 111.8069 L 5.3260 111.4773 L 5.0294 111.3659" />
    <path d="M 5.6912 114.3436 L 6.2206 114.5422 L 6.9485 114.5422 L 7.3747 114.4152 L 7.5303 114.0224 L 7.6464 112.2421 L 7.5559 111.8000 L 7.2492 111.5294 L 6.9485 111.3659" />
    <path d="M 7.6103 114.3436 L 8.1397 114.5422" />
    <path d="M 30.1765 114.5422 L 30.5062 114.2636 L 30.7281 113.9303 L 30.8534 113.5059 L 30.7208 112.1635 L 30.6011 111.7622 L 30.3823 111.4678 L 30.1765 111.3659" />
    <path d="M 30.7721 114.3436 L 31.3676 114.5422" />
    <path d="M 0.0000 114.0790 L 0.7593 114.3072 L 1.0575 114.1164 L 1.1494 113.7072 L 0.5956 112.9540" />
    <path d="M 11.1838 114.3436 L 11.7788 114.0362 L 12.3750 114.3436" />
    <path d="M 32.2279 114.2775 L 32.5287 113.9844 L 32.7475 113.6510 L 32.7921 112.7592 L 32.7250 112.3086 L 32.7675 111.8681 L 32.9673 111.5115 L 33.2868 111.3659" />
    <path d="M 8.8015 113.0202 L 9.1166 113.3008 L 9.4312 113.3223 L 9.6959 113.0930 L 9.8839 112.7120 L 9.8918 112.2656 L 9.7989 111.8292 L 9.5447 111.5148 L 9.1651 111.5132 L 8.9526 111.7566 L 9.0430 112.0339 L 9.3354 112.3243 L 9.8603 112.6232 L 10.7206 113.4834 L 11.5147 113.4834" />
    <path d="M 13.1691 110.8366 L 13.0385 111.2599 L 12.6474 111.4937 L 12.4311 111.8624 L 12.3200 112.3024 L 12.4634 112.7402 L 12.8382 113.4834 L 13.2353 111.2336 L 13.4846 111.6054 L 13.8816 112.3853 L 14.1167 113.1875 L 14.4464 113.3657 L 14.8757 113.4965 L 15.3529 113.4834 L 15.9485 112.8217 L 16.2161 113.1573 L 16.5640 113.2861 L 16.8671 113.2044 L 16.9440 113.0170 L 16.7039 112.8110 L 16.3521 112.6086 L 16.1386 112.3859 L 16.0438 112.0495 L 16.2222 111.6589 L 16.6625 111.4990 L 17.0786 111.6867 L 17.4044 111.9615 L 17.8676 113.4834 L 18.2301 113.2157 L 18.5069 112.8673 L 18.8967 112.0941 L 19.1834 112.0176 L 19.4143 112.3402 L 19.6117 112.7539 L 19.9191 113.0861 L 20.5147 113.4834" />
    <path d="M 24.4411 112.2589 L 24.4580 112.7098 L 24.6658 113.0841 L 24.9741 113.3365 L 25.3597 113.3528 L 25.6300 113.0928 L 25.9103 112.3176 L 25.8053 111.9053 L 25.5834 111.5560 L 25.1857 111.4126 L 24.7888 111.5701 L 24.4465 112.2236 L 26.6691 113.4834 L 27.5294 113.4834" />
    <path d="M 35.4044 113.4834 L 36.2971 113.3654 L 36.7406 113.4683 L 37.1761 113.3710 L 37.5221 113.4834 L 38.2058 112.2589 L 38.2406 112.7050 L 38.4141 113.0961 L 38.7484 113.3131 L 39.1087 113.2960 L 39.4056 113.1013 L 39.6491 112.7532 L 39.7751 112.3115 L 39.6316 111.8768 L 39.3366 111.5733 L 38.9601 111.5269 L 38.6269 111.6662 L 38.2112 112.2236" />
    <path d="M 43.3456 112.0938 L 43.0951 111.7055 L 42.6903 111.5343 L 42.3397 111.6579 L 42.0879 111.8974 L 41.8705 112.2652 L 41.8531 112.7150 L 42.0097 113.1234 L 42.3244 113.3607 L 42.6948 113.2887 L 43.1471 113.0864" />
    <path d="M 46.3897 112.8217 L 46.6619 113.1519 L 47.0017 113.3098 L 47.3109 113.2078 L 47.3440 113.0361 L 46.5487 112.3994 L 46.5178 112.0595 L 46.7379 111.7669 L 47.1050 111.5344 L 47.5468 111.6310 L 47.8456 111.9615 L 48.3088 113.4834 L 48.6306 113.1753 L 49.3590 112.1172 L 49.5887 112.1004 L 50.3812 113.0657 L 50.7316 113.2787 L 50.9559 113.4834 L 51.5515 112.8217 L 51.8330 113.1407 L 52.1627 113.3154 L 52.5251 113.2752 L 52.6437 112.9717 L 52.3277 112.7643 L 51.9055 112.6915 L 51.5902 112.4525 L 51.5767 112.0273 L 51.8877 111.7495 L 52.2713 111.6698 L 52.6688 111.7128 L 53.0074 111.9615 L 54.7279 113.0202 L 55.0337 113.3243 L 55.4425 113.4051 L 55.7802 113.1457 L 55.8941 112.7432 L 56.0810 112.3520 L 55.9920 111.9135 L 55.6731 111.6085 L 55.2647 111.5515 L 54.6618 111.6306" />
    <path d="M 56.7132 113.4834 L 57.5735 113.4834 L 59.0294 113.4834 L 59.4843 113.4881 L 59.9041 113.3365 L 60.1922 113.1020 L 60.2929 112.8575 L 60.1666 112.5398 L 59.5485 112.0565 L 59.5814 111.7504 L 59.8306 111.5107 L 60.2006 111.5188 L 60.5114 111.7652 L 60.5348 112.1473 L 60.4191 112.4247 L 61.2794 113.4834 L 62.0735 113.4834 L 63.3971 111.3659 L 63.1400 111.7192 L 62.9539 112.5696 L 63.0554 112.9993 L 63.3971 113.4834 L 63.8603 113.4834 L 65.0942 113.1659 L 65.2569 112.8398 L 65.0381 112.4965 L 64.3565 112.0664 L 64.3511 111.7162 L 64.6290 111.4092 L 65.0496 111.4787 L 65.2846 111.7932 L 65.3135 112.1432 L 65.2500 112.4247 L 66.3088 113.0202 L 66.6033 113.3374 L 66.9604 113.3849 L 67.1987 113.0904 L 67.3539 112.2697 L 67.3572 111.8071 L 67.0663 111.4889 L 66.6692 111.5029 L 66.4232 111.7457 L 66.5383 112.0428 L 67.3676 112.6232 L 69.2868 111.3659 L 69.5708 111.6721 L 69.7666 112.0198 L 69.8514 112.8969 L 69.9741 113.2799 L 70.2132 113.4834 L 70.8088 112.8217 L 71.0975 113.1323 L 71.4294 113.2519 L 71.7495 113.2328 L 71.8685 112.9869 L 71.5702 112.7975 L 71.1848 112.6547 L 70.9881 112.3905 L 70.9409 112.0608 L 71.1302 111.7279 L 71.5266 111.6069 L 71.9483 111.6673 L 72.2647 111.9615 L 72.7279 113.4834 L 73.5221 113.4834 L 74.0515 113.4834 L 74.8456 113.4834 L 77.4265 113.4834 L 78.2206 113.4834 L 78.7500 113.4834 L 79.5441 113.4834 L 80.2278 112.2589 L 80.3342 112.6859 L 80.5188 113.0356 L 80.7732 113.3064 L 81.1573 113.3922 L 81.5082 113.1645 L 81.6778 112.7550 L 81.7610 112.3137 L 81.6679 111.8702 L 81.3845 111.5343 L 80.9811 111.5141 L 80.6604 111.6810 L 80.2333 112.2236 L 82.3897 113.4834 L 83.6462 113.3987 L 84.1103 113.0202 L 84.6617 112.2589 L 84.6832 112.7085 L 84.9003 113.0739 L 85.2214 113.2715 L 85.5807 113.3543 L 85.9468 113.1683 L 86.1174 112.7565 L 86.1689 112.3153 L 86.0210 111.9076 L 85.7539 111.6315 L 85.4164 111.5325 L 85.0297 111.5967 L 84.7985 111.9260 L 84.6671 112.2236" />
    <path d="M 88.0809 113.4834 L 88.8750 113.4834 L 90.1985 111.3659 L 89.8032 112.1274 L 89.7028 112.5740 L 89.9524 112.9636 L 90.0665 113.3158 L 90.1985 113.4834 L 92.3824 112.0938 L 92.1145 111.7272 L 91.7184 111.5695 L 91.3813 111.6686 L 91.1059 111.8862 L 90.9640 112.2737 L 90.9073 112.7121 L 90.9923 113.1586 L 91.3519 113.3856 L 91.7489 113.3561 L 92.1838 113.0864" />
    <path d="M 95.1176 112.2589 L 95.1257 112.7121 L 95.2978 113.1166 L 95.6199 113.4109 L 96.0576 113.4304 L 96.3369 113.1167 L 96.5455 112.3201 L 96.4381 111.9256 L 96.2303 111.6005 L 95.8641 111.4359 L 95.4509 111.5513 L 95.1230 112.2236 L 97.2794 113.4834 L 98.0735 113.4834 L 98.4706 113.4834 L 99.3309 113.4834 L 99.7941 113.4834 L 100.5882 113.4834 L 101.1176 113.4834 L 101.9118 113.4834 L 102.3750 113.4834 L 103.1691 113.4834 L 104.4926 111.3659 L 104.1830 111.6918 L 104.0924 112.5660 L 104.1119 113.0139 L 104.4104 113.2829 L 104.4926 113.4834 L 104.9559 113.4834 L 105.8162 113.4834 L 107.4706 113.0202 L 107.7390 113.3839 L 108.1413 113.4393 L 108.3830 113.1037 L 108.4671 112.6985 L 108.4169 111.8513 L 108.1988 111.5424 L 107.8285 111.4955 L 107.5353 111.7311 L 107.6128 112.1079 L 107.9683 112.3791 L 108.5294 112.6232" />
    <path d="M 112.9190 112.2589 L 112.9437 112.7077 L 113.1200 113.1015 L 113.4614 113.3136 L 113.8333 113.3371 L 114.1507 113.1264 L 114.2960 112.7352 L 114.3762 112.3183 L 114.3240 111.8864 L 114.0750 111.5355 L 113.6680 111.4639 L 113.2901 111.6006 L 112.9245 112.2236 L 115.1471 113.4834 L 116.0074 113.4834 L 117.6618 113.0202 L 117.9377 113.3705 L 118.3304 113.4334 L 118.5871 113.1113 L 118.6909 112.7036 L 118.6726 112.2728 L 118.5930 111.8578 L 118.3917 111.5392 L 118.0043 111.4485 L 117.6789 111.7170 L 117.8192 112.0965 L 118.2247 112.2800 L 118.7206 112.6232" />
    <path d="M 21.9706 113.0202 L 22.3146 113.2895 L 22.6889 113.2616 L 22.8879 112.9347 L 22.9948 112.0700 L 22.7020 111.7306 L 22.5000 111.3659 L 22.9632 113.2849 L 23.5523 113.3831 L 23.8897 113.0202" />
    <path d="M 43.8088 113.4172 L 44.1321 113.1033 L 44.4727 112.8847 L 44.7437 112.8791 L 45.0304 113.0819 L 45.1324 113.3511" />
    <path d="M 67.5000 111.6306 L 68.3608 111.6210 L 68.6786 111.8067 L 68.8221 112.2065 L 68.9075 113.0921 L 69.2024 113.3303 L 69.8162 113.2187" />
    <path d="M 75.1765 113.0202 L 75.5343 113.2428 L 75.8427 113.1534 L 76.0657 112.9227 L 76.1715 112.5258 L 76.2041 112.0691 L 75.9989 111.6774 L 75.7059 111.3659 L 76.1691 113.2849 L 76.7582 113.3831 L 77.0956 113.0202" />
    <path d="M 92.6471 113.0202 L 92.9861 113.3060 L 93.3716 113.2745 L 93.5406 112.9245 L 93.6953 112.0632 L 93.3780 111.7309 L 93.1765 111.3659 L 93.6397 113.2849 L 94.2288 113.3831 L 94.5662 113.0202" />
    <path d="M 110.4485 113.0202 L 110.8005 113.2625 L 111.1732 113.2747 L 111.3873 112.9439 L 111.4256 112.0834 L 111.2653 111.6807 L 110.9779 111.3659 L 111.4412 113.2849 L 112.0303 113.3831 L 112.3676 113.0202" />
    <path d="M 11.1176 113.2849 L 11.0457 112.8353 L 11.2849 111.5645 L 11.5147 111.3659" />
    <path d="M 14.8897 113.2849 L 14.9314 112.8354 L 14.8950 111.9353 L 15.0144 111.5097 L 15.2496 111.1726 L 15.3529 110.9027" />
    <path d="M 27.0662 113.2849 L 27.1003 112.8350 L 27.0266 112.3824 L 27.1415 111.9617 L 27.5294 111.3659 L 28.5221 111.3659 L 28.1400 111.6322 L 27.8889 112.4763 L 27.8615 112.9046 L 28.4559 113.2849" />
    <path d="M 35.8015 113.2849 L 35.7331 112.8354 L 35.7507 112.3827 L 36.0530 111.6173 L 36.1985 111.3659 L 37.1250 113.2849 L 37.0532 112.8355 L 37.1501 112.3866 L 37.1683 111.9523 L 37.3197 111.5828 L 37.5221 111.3659" />
    <path d="M 57.1103 113.2849 L 57.1087 112.8349 L 57.2087 112.3908 L 57.1577 111.9527 L 57.2857 111.5587 L 57.5735 111.3659 L 59.4265 111.5644 L 58.9914 111.4535 L 58.2162 111.7447 L 57.9871 112.1144 L 57.9810 112.5412 L 58.1162 112.8836 L 58.2933 113.2004 L 58.5000 113.2849 L 59.4265 113.2849 L 59.4265 112.4908 L 61.6765 113.2849 L 61.6440 112.8351 L 61.7165 112.3873 L 61.6649 111.9348 L 61.9664 111.6382 L 62.0735 111.3659" />
    <path d="M 64.2574 113.2849 L 64.2574 112.4908" />
    <path d="M 73.1250 113.2849 L 73.0646 112.3883 L 73.1632 111.9282 L 72.7279 111.3659 L 74.4485 113.2849 L 74.4485 111.4983" />
    <path d="M 77.8235 113.2849 L 77.7987 112.8348 L 77.8683 112.3828 L 77.7480 111.9612 L 77.5923 111.6069 L 77.4265 111.3659 L 79.1471 113.2849 L 79.1471 111.4983" />
    <path d="M 82.8529 113.2849 L 82.7972 112.3824 L 83.0958 111.6120 L 83.2500 111.3659" />
    <path d="M 88.4779 113.2849 L 88.5272 112.8346 L 88.3744 112.3796 L 88.8750 111.3659" />
    <path d="M 97.6765 113.2849 L 97.9202 112.4998 L 98.2850 112.3083 L 98.6391 112.5206 L 98.9531 113.1616 L 98.9338 113.2849 L 100.1912 113.2849 L 100.1467 111.9522 L 100.0225 111.5691 L 99.7941 111.3659 L 101.5147 113.2849 L 101.5147 111.4983 L 102.7721 113.2849 L 102.7995 112.3866 L 102.7446 111.9300 L 103.0491 111.6305 L 103.1691 111.3659" />
    <path d="M 105.3529 113.2849 L 105.2748 112.8347 L 105.4314 112.3896 L 105.3919 111.9499 L 105.5615 111.5816 L 105.8162 111.3659 L 106.8088 111.3659 L 106.0548 112.4693 L 106.2207 112.8699 L 106.7426 113.2849" />
    <path d="M 115.5441 113.2849 L 115.6057 112.8350 L 115.4980 112.3820 L 115.6250 111.9635 L 116.0074 111.3659 L 117.0000 111.3659 L 116.7389 111.7268 L 116.4113 112.0394 L 116.3486 112.4753 L 116.5970 113.2215 L 116.9338 113.2849" />
    <path d="M 5.7574 112.9540 L 7.5441 113.0202" />
    <path d="M 1.0588 112.9540 L 1.2390 112.5559 L 1.3144 111.6975 L 0.4707 111.4735 L 0.0000 111.4983" />
    <path d="M 18.3309 112.9540 L 18.1807 111.7175 L 17.8676 111.3659" />
    <path d="M 20.0515 112.9540 L 20.0664 111.7994 L 20.5147 111.3659" />
    <path d="M 48.7721 112.9540 L 48.6219 111.7175 L 48.3088 111.3659" />
    <path d="M 50.4926 112.9540 L 50.5076 111.7993 L 50.9559 111.3659" />
    <path d="M 11.1838 112.0276 L 12.3750 112.8879" />
    <path d="M 61.7426 112.0276 L 62.9338 112.8879" />
    <path d="M 88.5441 112.0276 L 89.7353 112.8879" />
    <path d="M 102.8382 112.0276 L 104.0294 112.8879" />
    <path d="M 44.6691 112.6232 L 45.1121 111.7722 L 45.7941 111.3659" />
    <path d="M 27.1324 112.4908 L 27.6618 112.4908" />
    <path d="M 55.3235 112.4908 L 56.0515 112.4908 L 57.1765 112.4908 L 57.7059 112.4908" />
    <path d="M 105.4191 112.4908 L 105.9485 112.4908" />
    <path d="M 115.6103 112.4908 L 116.1397 112.4908" />
    <path d="M 44.6691 112.4247 L 44.0074 111.4321" />
    <path d="M 73.1912 112.4247 L 74.3824 112.4247" />
    <path d="M 77.8897 112.4247 L 79.0809 112.4247" />
    <path d="M 100.2574 112.4247 L 101.4485 112.4247 L 98.9338 112.3585 L 98.9791 111.6724 L 99.3309 111.3659" />
    <path d="M 5.6912 111.5644 L 6.2206 111.3659 L 7.6103 111.5644 L 8.1397 111.3659" />
    <path d="M 14.8897 111.5644 L 13.6985 111.3659" />
    <path d="M 22.9632 111.5644 L 23.4265 111.3659" />
    <path d="M 30.7721 111.5644 L 31.3676 111.3659 L 32.7574 111.5644 L 32.2279 111.3659" />
    <path d="M 76.1691 111.5644 L 76.6324 111.3659" />
    <path d="M 82.8529 111.5644 L 82.3897 111.3659" />
    <path d="M 93.6397 111.5644 L 94.1029 111.3659" />
    <path d="M 98.9338 111.5644 L 98.4044 111.3659" />
    <path d="M 111.4412 111.5644 L 111.9044 111.3659" />
    <path d="M 64.8529 105.2782 L 65.7794 105.2782 L 66.6397 105.2782 L 67.3015 105.2782 L 65.2500 105.0797 L 65.1527 104.6401 L 64.9864 104.2120 L 64.9263 103.7594 L 65.0657 103.3537 L 65.3565 103.1317 L 65.7059 103.0460 L 66.0870 103.1321 L 66.3831 103.4306 L 66.7830 104.2380 L 66.9706 105.0797" />
    <path d="M 79.4118 103.4915 L 79.3797 102.6470 L 79.4977 102.2526 L 79.8473 102.0656 L 80.1873 102.2611 L 80.3115 102.6513 L 80.2126 103.0335 L 79.5853 103.5100 L 79.6231 103.8458 L 80.4044 104.4179" />
    <path d="M 82.9923 103.7364 L 82.6894 103.4955 L 82.3773 103.4924 L 82.1217 103.7827 L 82.3403 104.0976 L 82.6185 104.2532 L 82.9426 104.1065 L 82.9994 103.7690 L 84.9200 103.7142 L 84.6090 103.4815 L 84.3265 103.5848 L 84.1645 103.8448 L 84.2427 104.1978 L 84.6215 104.3412 L 84.8533 104.0298 L 84.9285 103.7463 L 85.6324 103.9547 L 86.0192 104.1995 L 86.4662 104.2140 L 86.7420 104.0378 L 86.3813 102.4123 L 86.2279 102.0358" />
    <path d="M 78.1544 104.0871 L 77.8645 103.7420 L 77.6523 103.3403 L 77.4114 103.0214 L 77.4007 102.7977 L 77.7495 102.6710 L 78.1864 102.7354 L 78.5515 102.6975 L 78.2206 103.8886 L 78.2206 102.1681" />
    <path d="M 82.3897 103.2269 L 82.2437 102.8055 L 82.2060 102.4254 L 82.3937 102.1329 L 82.7923 102.1035 L 82.9635 102.4156 L 82.7477 103.1281 L 82.6544 103.2269 L 84.3750 103.2269 L 84.1346 102.8393 L 84.1029 102.4423 L 84.3311 102.2230 L 84.6725 102.1901 L 85.0030 102.3977 L 84.8387 102.7949 L 84.6158 103.0931 L 84.5735 103.2269" />
    <path d="M 75.1103 103.0945 L 76.7647 103.0945" />
    <path d="M 68.7574 102.3005 L 67.9927 102.0707 L 67.6983 102.2988 L 67.9119 102.6208 L 68.2555 102.6909 L 68.5643 102.5707 L 68.8255 102.2787 L 68.9559 101.9696" />
    <path d="M 96.2868 101.4402 L 96.1530 101.0099 L 96.1066 100.5658 L 96.2084 100.1320 L 96.4066 99.7404 L 96.7261 99.4575 L 97.1297 99.4549 L 97.4384 99.7096 L 97.6250 100.0650 L 97.6657 100.4747 L 97.6160 100.8887 L 97.3693 101.1971 L 96.5811 101.4292 L 96.4416 101.7299 L 96.6409 102.0794 L 96.9370 102.3883 L 97.2869 102.6297 L 97.8088 102.8960" />
    <path d="M 100.3897 101.3741 L 100.8405 101.3858 L 101.2737 101.3135 L 101.5914 101.0241 L 101.7262 100.6095 L 101.7126 100.1668 L 101.5331 99.7730 L 101.2281 99.5068 L 100.8735 99.5025 L 100.5909 99.7096 L 100.4234 100.0443 L 100.3168 100.4577 L 100.2394 100.8908 L 100.2697 101.3204 L 100.4280 101.7370 L 100.6450 102.1292 L 100.9383 102.4505 L 101.8456 102.8960 L 103.1029 101.5064 L 102.9712 101.0791 L 102.9387 100.6466 L 103.0061 100.2275 L 103.1652 99.8402 L 103.4365 99.5436 L 103.8056 99.4735 L 104.1522 99.6457 L 104.4084 99.9744 L 104.5029 100.3994 L 104.4738 100.8473 L 104.2287 101.2157 L 103.8383 101.4099 L 103.4334 101.5017 L 103.1993 101.7512 L 103.2839 102.1417 L 103.5724 102.4963 L 104.5588 102.8960 L 105.3529 102.3005 L 105.7310 102.5310 L 106.0917 102.6356 L 106.3918 102.4880 L 106.6729 102.1830 L 106.5934 101.7499 L 106.3558 101.4264 L 105.9485 101.1094" />
    <path d="M 110.2500 102.8298 L 110.3257 102.3861 L 110.6223 101.5431 L 110.8224 100.6554 L 111.5414 99.5422 L 111.8767 99.3679 L 112.1029 99.3228" />
    <path d="M 55.2574 102.6975 L 56.3162 102.6975 L 55.7206 102.4990 L 55.6851 102.0449 L 55.5680 101.6101 L 55.3549 101.1999 L 54.9749 99.8963 L 54.6021 99.6323 L 54.2165 99.5331 L 53.9153 99.5164 L 53.7353 99.7198" />
    <path d="M 67.6324 102.2343 L 67.1029 101.9034" />
    <path d="M 108.3309 99.3228 L 108.7150 99.5551 L 109.0516 99.8396 L 109.2911 100.2230 L 109.3535 100.6848 L 109.6136 101.5589 L 110.1838 102.1681" />
    <path d="M 60.7500 101.5064 L 61.1899 101.6290 L 61.6477 101.5651 L 62.0928 101.5828 L 62.5469 101.6678 L 62.9753 101.4941 L 63.3971 101.5064" />
    <path d="M 71.1397 101.5064 L 71.5857 101.5690 L 72.0385 101.5503 L 72.4828 101.6499 L 72.9322 101.6135 L 73.3640 101.4846 L 73.7868 101.5064" />
    <path d="M 88.8750 101.5064 L 89.3165 101.6160 L 89.7750 101.5326 L 91.1210 101.6164 L 91.5882 101.5064" />
    <path d="M 106.4779 101.1756 L 106.6364 100.7609 L 106.8800 100.3984 L 106.8432 99.9634 L 106.1924 99.4429 L 105.7840 99.3577 L 105.4191 99.4551" />
    <path d="M 92.8456 101.1094 L 93.7456 101.1556 L 94.6456 101.0429 L 95.4265 101.1094" />
    <path d="M 110.8456 100.7785 L 110.1906 100.5048 L 109.4559 100.6462" />
    <path d="M 60.8162 100.6462 L 61.2672 100.6802 L 61.7147 100.5774 L 62.6171 100.6583 L 63.0408 100.5502 L 63.3971 100.5800 L 64.3897 100.6462 L 66.1897 100.7053 L 67.5397 100.5397 L 68.8897 100.7446 L 69.7500 100.6462 L 71.2059 100.6462 L 71.6559 100.6588 L 72.1059 100.5964 L 72.5559 100.6803 L 73.0059 100.6680 L 73.4188 100.5738 L 73.7206 100.6462 L 74.9779 100.6462 L 79.0279 100.6978 L 82.1779 100.5791 L 84.8779 100.6928 L 87.4853 100.6462 L 88.9412 100.6462 L 89.3912 100.6875 L 89.8412 100.5722 L 90.2912 100.7031 L 91.1541 100.5897 L 91.4559 100.6462" />
    <path d="M 64.3897 97.6023 L 64.7181 97.8950 L 65.4437 99.4673 L 65.6786 99.7641 L 66.0155 99.8201 L 66.2644 99.5824 L 66.2098 99.1863 L 66.0096 98.7993 L 65.8849 98.3848 L 66.0187 97.9618 L 66.5735 97.6023" />
    <path d="M 80.0474 98.2961 L 80.0674 99.2010 L 80.2400 99.6003 L 80.5757 99.7811 L 80.8951 99.6119 L 81.0936 99.2385 L 81.1238 98.8082 L 80.9714 97.9725 L 80.7628 97.6788 L 80.4197 97.6832 L 80.1796 97.9891 L 80.0529 98.2649 L 81.9265 99.5874 L 82.3258 99.6286 L 82.7122 99.5850 L 82.6761 99.1880 L 82.2574 98.7272" />
    <path d="M 77.2941 99.6536 L 77.7247 99.6503 L 78.0117 99.5052 L 78.2199 99.2702 L 78.2338 98.8338 L 77.8914 98.0153 L 77.8235 97.6685" />
    <path d="M 83.7132 99.5213 L 84.5588 99.7947 L 84.8786 99.5110 L 84.7870 99.0713 L 84.3088 97.6023" />
    <path d="M 56.3824 98.9257 L 56.6852 99.2430 L 56.9746 99.3901 L 57.1665 99.3816 L 57.0980 99.1059 L 56.4574 98.7542 L 56.4320 98.3787 L 56.8429 98.2945 L 57.3750 98.3964 L 58.8309 98.3302 L 58.4155 98.2995 L 58.1632 98.4527 L 58.1240 98.7732 L 58.2842 99.1436 L 58.5744 99.4181 L 58.9268 99.5000 L 59.1446 99.1789 L 59.0589 98.7372 L 58.7573 97.9013 L 58.2353 97.2715" />
    <path d="M 111.3088 99.5874 L 110.7132 99.3228 L 108.9265 99.5213 L 109.3897 99.3228" />
    <path d="M 82.7206 98.7272 L 82.9440 98.2518 L 82.8418 97.7910 L 82.4901 97.5457 L 81.9926 97.6023" />
    <path d="M 67.1029 97.2715 L 67.3435 97.6219 L 67.5564 97.5347 L 67.3135 97.3588 L 67.1123 97.0711 L 67.6985 96.8744 L 68.5588 96.8083 L 68.2497 97.0088 L 68.2772 97.3776 L 68.5906 97.5970 L 68.6876 97.2516 L 68.6559 96.4360 L 68.5588 96.1465" />
    <path d="M 75.4412 89.9264 L 75.5125 89.4762 L 75.3808 88.5709 L 75.7584 87.8744 L 75.9044 87.7428" />
    <path d="M 84.5074 89.9264 L 84.5507 89.4754 L 84.4655 89.0265 L 84.4415 88.5735 L 84.7721 87.7428" />
    <path d="M 92.1887 86.7486 L 92.1373 87.6553 L 92.2433 88.0998 L 92.4570 88.4962 L 92.7902 88.7640 L 93.1942 88.7711 L 93.5078 88.5032 L 93.6788 88.1101 L 93.8491 86.8066 L 93.8444 86.3599 L 93.7144 85.9367 L 93.4820 85.5723 L 93.1147 85.3565 L 92.6795 85.4335 L 92.3927 85.7927 L 92.1923 86.7137" />
    <path d="M 96.2021 86.6804 L 96.1524 87.5839 L 96.2496 88.0268 L 96.4379 88.4303 L 96.7512 88.7115 L 97.1411 88.7597 L 97.4789 88.5554 L 97.6967 88.1937 L 97.7909 87.7664 L 97.8298 86.4443 L 97.7314 86.0151 L 97.5265 85.6315 L 97.1751 85.4038 L 96.7712 85.4590 L 96.4753 85.7691 L 96.3056 86.1824 L 96.2062 86.6466" />
    <path d="M 102.1765 86.3532 L 102.3247 85.9425 L 102.5869 85.6494 L 102.9381 85.4773 L 103.3464 85.4021 L 103.7593 85.5001 L 104.0768 85.7843 L 104.1712 86.2041 L 104.0016 86.6027 L 102.9147 87.3923 L 102.6168 87.7034 L 102.4623 88.0956 L 102.5401 88.5026 L 102.8386 88.8093 L 103.2785 88.9038 L 103.6912 88.7244 L 103.9698 88.4111 L 104.1618 88.0736" />
    <path d="M 63.7279 87.0149 L 64.0464 86.7624 L 64.1844 86.3975 L 64.1556 85.9682 L 63.9306 85.5879 L 63.5507 85.3595 L 63.1154 85.2910 L 62.7022 85.4242 L 62.3362 85.6683 L 62.0884 86.0203 L 61.9717 86.4354 L 61.9800 86.8653 L 62.2249 87.6929 L 62.4435 88.0790 L 62.7412 88.4193 L 63.1270 88.6620 L 63.5650 88.7799 L 64.0075 88.7705 L 64.3867 88.6075 L 64.6468 88.3259 L 64.7868 88.0075" />
    <path d="M 100.3235 88.6692 L 100.2321 88.2211 L 100.3397 87.3185 L 100.3017 86.8692 L 100.1906 86.4215 L 100.3112 85.9899 L 100.2574 85.6253 L 100.7206 86.4855 L 99.3767 86.5901 L 98.9902 86.5748 L 98.8449 86.8240 L 99.0146 87.2107 L 99.9120 88.1743 L 100.1912 88.4045" />
    <path d="M 75.4412 87.9413 L 74.9779 87.7428" />
    <path d="M 84.5074 87.9413 L 84.0441 87.7428" />
    <path d="M 70.0809 87.5443 L 70.9809 87.5885 L 71.8809 87.4940 L 72.2806 87.5816 L 72.5294 87.5443" />
    <path d="M 79.1471 87.5443 L 79.5971 87.5029 L 80.0471 87.5888 L 80.4971 87.5221 L 81.3600 87.5792 L 81.6618 87.5443" />
    <path d="M 88.1471 87.5443 L 88.5971 87.4887 L 89.0471 87.6101 L 89.4971 87.4982 L 90.3732 87.5901 L 90.7279 87.5443" />
    <path d="M 64.3235 86.8164 L 64.9191 87.0149" />
    <path d="M 70.0147 86.6179 L 70.4647 86.5963 L 70.9147 86.6748 L 71.3647 86.5708 L 72.2409 86.6903 L 72.5956 86.6179 L 73.6544 86.6179 L 74.5544 86.6610 L 75.4544 86.5497 L 75.9044 86.6329 L 76.8044 86.6639 L 77.4926 86.6179 L 79.0147 86.6179 L 79.4647 86.6683 L 79.9147 86.5853 L 80.3647 86.5852 L 80.8147 86.6679 L 81.6618 86.6179 L 82.7206 86.6179 L 84.0706 86.6745 L 84.9706 86.5535 L 86.2782 86.6425 L 86.5588 86.6179 L 88.0809 86.6179 L 88.5309 86.6159 L 88.9809 86.5524 L 90.3203 86.6867 L 90.7279 86.6179" />
    <path d="M 65.5809 86.3532 L 66.4501 86.2090 L 66.7682 86.0000 L 66.8125 85.6062 L 66.4163 84.8078 L 66.5452 84.3904 L 66.9706 83.9049 L 65.9779 86.1547 L 65.9416 85.4755 L 66.3750 85.0298" />
    <path d="M 74.1838 86.0223 L 74.6425 86.0567 L 75.0442 85.8602 L 75.2733 85.6192 L 75.3492 85.2845 L 75.2547 84.8611 L 75.0920 84.4851 L 75.1125 84.0544 L 75.4003 83.7460 L 75.7059 83.5740 L 74.5809 85.8238 L 74.4560 85.3912 L 74.3929 84.9427 L 74.2271 84.5249 L 73.8378 83.7633 L 73.5221 83.5740" />
    <path d="M 82.8529 85.4930 L 83.2516 85.6962 L 83.6486 85.6477 L 83.9029 85.3864 L 83.8546 84.9879 L 83.5172 84.1727 L 83.4298 83.7885 L 83.6622 83.6232 L 84.1765 83.6402 L 84.9706 83.5740 L 85.7492 83.8399 L 85.9711 84.1838 L 85.8427 84.5937 L 85.5159 84.8899 L 85.3373 85.2562 L 85.4407 85.4923 L 85.7015 85.6688 L 85.9632 85.7577" />
    <path d="M 65.8456 85.3606 L 65.4485 84.0372" />
    <path d="M 74.4485 84.9636 L 74.9779 84.6989" />
    <path d="M 67.7647 84.6327 L 68.0488 84.1880 L 68.0294 83.0446" />
    <path d="M 76.6324 84.2357 L 76.6324 82.7138" />
    <path d="M 53.0074 75.5673 L 53.2914 75.2536 L 53.3335 74.8560 L 53.1232 74.4928 L 52.7557 74.2562 L 52.3115 74.3220 L 52.0458 74.6855 L 51.9343 75.0961 L 51.9490 75.4886 L 52.0788 75.8939 L 52.3146 76.2408 L 52.6211 76.5106 L 53.0028 76.7114 L 53.4289 76.6936 L 53.7013 76.4454 L 53.8015 76.2290 L 53.4706 75.3688 L 54.0000 75.5673" />
    <path d="M 93.6864 73.7666 L 93.7438 74.2129 L 93.8979 74.6191 L 94.0810 74.9227 L 94.3446 75.0451 L 94.6676 74.8441 L 94.8841 74.4433 L 94.8705 73.9922 L 94.7609 73.5582 L 94.6047 73.1831 L 94.3397 73.0047 L 94.0717 73.1400 L 93.6909 73.7333" />
    <path d="M 97.7426 73.5821 L 97.4827 73.2246 L 97.1946 73.0190 L 96.9337 73.1248 L 96.7702 73.4567 L 96.6453 73.8767 L 96.5840 74.3213 L 96.6903 74.7585 L 96.9330 75.0851 L 97.3054 75.0975 L 97.5980 74.8106 L 97.8444 73.9694 L 98.1120 73.7105 L 98.4593 73.8209 L 99.2647 74.9056" />
    <path d="M 55.0588 74.1115 L 54.8399 74.4473 L 54.9677 74.7078 L 55.1697 74.6769 L 55.3077 73.5933 L 55.4559 73.3836" />
    <path d="M 99.3309 74.7071 L 99.3309 72.9866" />
    <path d="M 54.6618 74.2439 L 54.0662 73.3836" />
    <path d="M 74.2500 72.3249 L 74.1239 71.8925 L 74.0652 71.4510 L 74.1672 71.0198 L 74.3704 70.6478 L 74.6588 70.4087 L 74.9878 70.3707 L 75.3077 70.5171 L 75.5750 70.8180 L 75.6817 71.2402 L 75.6416 71.6921 L 75.3799 72.0516 L 74.9856 72.2348 L 74.5947 72.3382 L 74.4224 72.5754 L 74.5724 72.9144 L 74.8454 73.2528 L 75.1982 73.5064 L 75.9044 73.7807" />
    <path d="M 56.1176 73.7145 L 56.1176 72.7881" />
    <path d="M 70.2132 72.2587 L 70.0951 71.3866 L 70.1678 70.9613 L 70.3417 70.5648 L 70.6440 70.2505 L 71.0829 70.1948 L 71.4682 70.4396 L 71.6793 70.8485 L 71.6460 71.3004 L 71.5084 71.6956 L 71.2572 71.9599 L 70.5009 72.2447 L 70.3505 72.5573 L 70.5313 72.9214 L 70.8224 73.2490 L 71.7353 73.7145" />
    <path d="M 76.8971 72.3249 L 76.7918 71.8904 L 76.7885 71.4606 L 76.8600 71.0499 L 76.9915 70.6526 L 77.2444 70.3224 L 77.6488 70.2204 L 78.0435 70.4109 L 78.2908 70.7940 L 78.3062 71.2476 L 78.1864 71.6611 L 77.9216 71.9457 L 77.1749 72.2740 L 77.0059 72.5890 L 77.1795 72.9248 L 77.4854 73.2072 L 78.3529 73.7145" />
    <path d="M 124.3456 72.3249 L 124.2022 71.9006 L 124.1694 71.4663 L 124.2719 71.0544 L 124.4428 70.6849 L 124.6844 70.3755 L 125.0615 70.2444 L 125.4728 70.3838 L 125.7494 70.7566 L 125.7671 71.2204 L 125.6284 71.6334 L 125.3624 71.9158 L 124.6438 72.2823 L 124.4612 72.5732 L 124.5978 72.9041 L 124.8807 73.2064 L 125.8015 73.7145" />
    <path d="M 79.2794 73.1851 L 80.0509 73.4887 L 80.4381 73.3952 L 80.5522 72.9899 L 80.4244 72.5957 L 80.2277 72.2491 L 79.8750 71.9279" />
    <path d="M 33.2206 73.5821 L 33.8162 73.3175 L 34.5441 73.5821" />
    <path d="M 42.4191 73.5821 L 43.0147 73.3175 L 43.7426 73.5821" />
    <path d="M 98.4044 73.5160 L 99.6618 73.5160" />
    <path d="M 117.6618 73.3836 L 118.0053 73.2143 L 118.1704 72.8554 L 118.2182 72.4073 L 118.1070 71.9550 L 118.1316 71.5045 L 118.3230 70.6528 L 118.5187 70.3242 L 118.7868 70.1412" />
    <path d="M 128.1838 73.4498 L 127.9221 73.0800 L 127.5619 72.7982 L 127.2597 72.4635 L 127.0292 72.0784 L 126.9188 71.6905 L 127.0391 71.4328 L 127.3656 71.2723 L 127.8040 71.1674 L 128.7132 71.2661" />
    <path d="M 122.7574 73.3836 L 122.2244 72.6545 L 121.6248 72.0012 L 121.4730 71.6328 L 121.6240 71.3277 L 122.0290 71.2233 L 122.4597 71.2995 L 122.7610 71.5560 L 122.8605 71.9664 L 122.8022 72.8348 L 122.8235 73.1851" />
    <path d="M 33.8162 73.3175 L 33.7280 72.8747 L 33.5065 72.4698 L 33.3153 71.5885 L 33.3022 71.1228 L 32.8220 70.4092 L 32.4265 70.1412" />
    <path d="M 43.0147 73.3175 L 42.8696 72.8893 L 42.6133 71.5611 L 42.4741 71.1262 L 42.1932 70.7703 L 41.5204 70.3039 L 41.2045 70.3258 L 41.0294 70.5383" />
    <path d="M 131.6250 73.2513 L 131.7643 72.8228 L 132.1387 71.9890 L 132.0646 71.5575 L 131.6719 71.4065 L 131.2356 71.4464 L 130.8226 71.4063 L 130.5495 71.1038 L 130.0963 70.3530 L 129.7059 70.1412" />
    <path d="M 128.1838 73.1851 L 128.1058 72.7351 L 128.2727 71.8351 L 128.0853 71.3851 L 128.2217 70.9351 L 128.1838 70.4059" />
    <path d="M 130.7647 71.4647 L 131.0498 72.3896 L 131.4926 72.9866" />
    <path d="M 37.3235 72.3911 L 37.7735 72.3862 L 38.2235 72.4568 L 38.6735 72.3478 L 39.8382 72.3911" />
    <path d="M 62.8676 72.3911 L 63.7676 72.4661 L 64.2176 72.3571 L 64.6676 72.3325 L 65.3824 72.3911" />
    <path d="M 110.1838 72.3911 L 110.6338 72.4251 L 111.5338 72.3615 L 112.3968 72.4301 L 112.6985 72.3911" />
    <path d="M 66.6397 71.9279 L 67.5397 71.8631 L 67.9897 72.0060 L 68.4397 71.8974 L 69.2206 71.9279" />
    <path d="M 80.4706 71.9279 L 80.7540 71.5791 L 80.8605 71.1654 L 80.4736 70.4316 L 80.0681 70.2628 L 79.6569 70.3319 L 79.3456 70.2736" />
    <path d="M 114.0221 71.9279 L 114.9221 71.9028 L 115.8221 71.9985 L 116.2615 71.8795 L 116.6691 71.9279" />
    <path d="M 132.2206 71.5308 L 132.7789 70.4494 L 133.4118 70.1412" />
    <path d="M 37.3235 71.4647 L 37.7735 71.4536 L 38.2235 71.5197 L 38.6735 71.3818 L 39.1235 71.5451 L 39.5365 71.4245 L 39.8382 71.4647" />
    <path d="M 47.1838 71.4647 L 49.4338 71.5074 L 52.1338 71.3620 L 57.0838 71.5711 L 59.3338 71.4443 L 61.2794 71.4647 L 62.8676 71.4647 L 63.3176 71.5338 L 63.7676 71.4182 L 64.2176 71.4317 L 64.6676 71.5452 L 65.0938 71.4363 L 65.4485 71.4647" />
    <path d="M 84.7059 71.4647 L 91.9059 71.5271 L 96.4059 71.3646 L 100.4559 71.5587 L 104.9559 71.4150 L 108.6618 71.4647 L 110.1838 71.4647 L 110.6338 71.4106 L 111.0838 71.5305 L 111.5338 71.4295 L 111.9838 71.4456 L 112.4100 71.5261 L 112.7647 71.4647" />
    <path d="M 122.8235 71.3323 L 123.2868 71.2661 L 122.8235 71.2000 L 122.8235 70.4059" />
    <path d="M 34.8750 71.0676 L 35.2065 70.7515 L 35.1961 69.3988 L 34.7426 68.8840" />
    <path d="M 48.7721 69.6780 L 49.0412 69.3582 L 49.0559 68.9771 L 48.8547 68.6377 L 48.5017 68.4824 L 48.1538 68.5728 L 47.8730 68.8382 L 47.6528 69.1979 L 47.6411 69.6133 L 47.7776 70.0327 L 47.9787 70.4301 L 48.3116 70.7419 L 48.7541 70.8500 L 49.1636 70.7531 L 49.4464 70.5582 L 49.5662 70.4059" />
    <path d="M 57.3750 69.6780 L 57.6094 69.3294 L 57.5804 68.9537 L 57.3805 68.6469 L 57.0548 68.4612 L 56.6569 68.5087 L 56.3632 68.8255 L 56.2072 69.2362 L 56.2358 69.6643 L 56.3815 70.0874 L 56.6452 70.4361 L 57.0082 70.6572 L 57.4062 70.7691 L 57.8088 70.7473 L 58.1691 70.4721" />
    <path d="M 85.0162 69.0812 L 85.0537 69.5296 L 85.2705 70.3315 L 85.5137 70.5488 L 85.8143 70.4307 L 86.0490 70.0886 L 86.2015 69.6657 L 86.1721 69.2069 L 85.9886 68.7949 L 85.7326 68.5385 L 85.4461 68.5422 L 85.0220 69.0511" />
    <path d="M 102.2821 69.2374 L 102.3002 69.6890 L 102.3939 70.1237 L 102.6418 70.4221 L 102.9070 70.5005 L 103.1819 70.3205 L 103.3871 69.9511 L 103.4575 69.0679 L 103.2954 68.6526 L 102.9648 68.4777 L 102.6795 68.6123 L 102.2870 69.2045" />
    <path d="M 106.3456 69.1487 L 106.1391 68.7479 L 105.8607 68.4460 L 105.5132 68.5477 L 105.3577 68.9127 L 105.2123 69.7528 L 105.3149 70.1642 L 105.5284 70.4964 L 105.8153 70.5800 L 106.0938 70.3563 L 106.4789 69.5702 L 106.6656 69.3270 L 106.9264 69.4415 L 107.9338 70.5383" />
    <path d="M 91.3897 70.3397 L 91.7975 70.5159 L 92.2065 70.5134 L 92.4224 70.2044 L 92.2933 69.3905 L 92.0088 68.6483 L 92.2500 68.4211 L 92.5809 68.3546" />
    <path d="M 97.2794 68.4208 L 97.7069 68.4802 L 98.0713 68.6462 L 98.2765 68.9922 L 98.1398 69.3861 L 97.8575 69.7261 L 97.7239 70.1242 L 97.7720 70.3901 L 98.0047 70.5660 L 98.2059 70.6044" />
    <path d="M 95.4265 70.4721 L 95.7222 70.1725 L 95.9310 69.8052 L 95.8796 69.3477 L 95.9092 68.8984 L 96.1128 68.5437 L 96.1544 68.2884" />
    <path d="M 43.7426 69.8104 L 44.0517 70.1059 L 44.2884 70.2602 L 44.4173 70.0183 L 44.1726 69.7551 L 43.7934 69.7316 L 43.6821 69.3967 L 43.9599 69.1629 L 44.6691 69.2148 L 46.1250 69.1487 L 45.7184 69.1583 L 45.4221 69.2498 L 45.3294 69.6253 L 45.5377 70.0271 L 45.8937 70.2402 L 46.1893 70.2082 L 46.3116 69.9185 L 46.2709 69.0523 L 46.1549 68.6080 L 45.5956 68.0899" />
    <path d="M 54.0662 70.4721 L 54.0662 68.8178" />
    <path d="M 88.4779 70.4721 L 88.5441 70.0231 L 88.4479 69.1327 L 88.3726 68.7046 L 88.1471 68.2884" />
    <path d="M 90.5956 70.4721 L 90.5956 68.5531" />
    <path d="M 94.1029 70.4721 L 94.0557 70.0213 L 94.1684 69.5716 L 94.1060 69.1276 L 93.7721 68.2884" />
    <path d="M 118.1912 70.4059 L 117.5294 70.1412" />
    <path d="M 132.6176 70.4059 L 132.0882 70.1412" />
    <path d="M 33.0882 70.3397 L 33.5515 70.1412" />
    <path d="M 90.7941 69.0163 L 90.3418 68.9629 L 89.9735 69.1214 L 89.8129 69.3497 L 89.8703 69.7399 L 90.5294 70.2736" />
    <path d="M 100.3897 70.2736 L 100.2236 69.5629 L 99.5294 69.4133" />
    <path d="M 107.9338 70.2074 L 107.9338 68.4870" />
    <path d="M 49.2353 69.4795 L 49.6985 69.6780" />
    <path d="M 57.8382 69.5457 L 58.3015 69.6780" />
    <path d="M 53.1397 69.5457 L 54.9926 69.5457" />
    <path d="M 100.3235 69.4133 L 101.1838 69.4133 L 100.3897 69.3472 L 100.3897 68.6193" />
    <path d="M 59.3603 68.2223 L 59.0754 68.5034 L 59.2625 68.8130 L 59.5302 68.8297 L 59.5301 68.5075 L 59.8235 67.4944" />
    <path d="M 106.9412 69.0163 L 107.8015 69.0163" />
    <path d="M 50.1158 68.1225 L 50.4372 68.4353 L 50.8235 68.4208 L 50.5092 68.0851 L 50.0956 68.0899 L 51.7500 67.6267 L 51.4240 67.7591 L 51.3489 67.9774 L 51.5289 68.2947 L 51.8526 68.2960 L 51.9224 67.9371 L 51.6838 67.0312" />
    <path d="M 95.8897 68.4870 L 95.4265 68.2884" />
    <path d="M 58.8971 68.2223 L 58.7647 67.5606" />
    <path d="M 50.0294 67.9576 L 50.2312 67.6033 L 50.6912 67.6267" />
    <path d="M 60.4853 67.8252 L 60.4853 66.8988" />
  </g>
</svg>
